<mxfile host="app.diagrams.net" modified="2024-05-08T15:10:15.841Z" agent="Mozilla/5.0 (Windows NT 10.0; Win64; x64) AppleWebKit/537.36 (KHTML, like Gecko) Chrome/121.0.0.0 Safari/537.36 OPR/107.0.0.0" etag="6XjYSlaXsOHKbBWa4ugN" version="24.3.1" type="device">
  <diagram name="PÃ¡gina-1" id="wPIqO7xMKzcGLmWOc03K">
    <mxGraphModel dx="1639" dy="901" grid="1" gridSize="10" guides="1" tooltips="1" connect="1" arrows="1" fold="1" page="1" pageScale="1" pageWidth="827" pageHeight="1169" math="0" shadow="0">
      <root>
        <mxCell id="0" />
        <mxCell id="1" parent="0" />
        <mxCell id="uX7CqM1bhRp927PcS0iX-1" value="User" style="swimlane;whiteSpace=wrap;html=1;align=center;" parent="1" vertex="1">
          <mxGeometry x="300" y="60" width="200" height="215" as="geometry" />
        </mxCell>
        <mxCell id="uX7CqM1bhRp927PcS0iX-2" value="&lt;span style=&quot;background-color: initial;&quot;&gt;+id: int&lt;br&gt;&lt;/span&gt;&lt;br&gt;&lt;span style=&quot;background-color: initial;&quot;&gt;+name: string&lt;/span&gt;&lt;br&gt;&lt;span style=&quot;background-color: initial;&quot;&gt;&lt;br&gt;+email: string&lt;/span&gt;&lt;br&gt;&lt;span style=&quot;background-color: initial;&quot;&gt;&lt;br&gt;#password: string&lt;/span&gt;" style="text;html=1;align=left;verticalAlign=middle;resizable=0;points=[];autosize=1;strokeColor=none;fillColor=none;" parent="uX7CqM1bhRp927PcS0iX-1" vertex="1">
          <mxGeometry x="6" y="30" width="120" height="110" as="geometry" />
        </mxCell>
        <mxCell id="uX7CqM1bhRp927PcS0iX-6" value="+verify_credentials()" style="text;html=1;align=center;verticalAlign=middle;resizable=0;points=[];autosize=1;strokeColor=none;fillColor=none;" parent="uX7CqM1bhRp927PcS0iX-1" vertex="1">
          <mxGeometry x="-4" y="170" width="130" height="30" as="geometry" />
        </mxCell>
        <mxCell id="uX7CqM1bhRp927PcS0iX-5" value="" style="endArrow=none;html=1;rounded=0;exitX=0;exitY=0.75;exitDx=0;exitDy=0;entryX=1;entryY=0.75;entryDx=0;entryDy=0;" parent="1" source="uX7CqM1bhRp927PcS0iX-1" target="uX7CqM1bhRp927PcS0iX-1" edge="1">
          <mxGeometry width="50" height="50" relative="1" as="geometry">
            <mxPoint x="390" y="320" as="sourcePoint" />
            <mxPoint x="440" y="270" as="targetPoint" />
          </mxGeometry>
        </mxCell>
        <mxCell id="uX7CqM1bhRp927PcS0iX-13" style="edgeStyle=orthogonalEdgeStyle;rounded=0;orthogonalLoop=1;jettySize=auto;html=1;entryX=0;entryY=0.5;entryDx=0;entryDy=0;" parent="1" source="uX7CqM1bhRp927PcS0iX-8" target="uX7CqM1bhRp927PcS0iX-1" edge="1">
          <mxGeometry relative="1" as="geometry" />
        </mxCell>
        <mxCell id="uX7CqM1bhRp927PcS0iX-8" value="Customer" style="swimlane;whiteSpace=wrap;html=1;" parent="1" vertex="1">
          <mxGeometry x="40" y="240" width="200" height="160" as="geometry" />
        </mxCell>
        <mxCell id="qvGcv-SHBIXvMCFyfdX7-1" value="+createOrder()&lt;div&gt;&lt;br&gt;&lt;/div&gt;&lt;div style=&quot;&quot;&gt;+deleteOrder()&lt;/div&gt;&lt;div style=&quot;&quot;&gt;&lt;br&gt;&lt;/div&gt;&lt;div style=&quot;&quot;&gt;+createAccount()&lt;/div&gt;" style="text;html=1;align=left;verticalAlign=middle;resizable=0;points=[];autosize=1;strokeColor=none;fillColor=none;" vertex="1" parent="uX7CqM1bhRp927PcS0iX-8">
          <mxGeometry y="60" width="120" height="90" as="geometry" />
        </mxCell>
        <mxCell id="qvGcv-SHBIXvMCFyfdX7-2" value="+orders: List(Order)" style="text;html=1;align=center;verticalAlign=middle;resizable=0;points=[];autosize=1;strokeColor=none;fillColor=none;" vertex="1" parent="uX7CqM1bhRp927PcS0iX-8">
          <mxGeometry x="-10" y="30" width="130" height="30" as="geometry" />
        </mxCell>
        <mxCell id="qvGcv-SHBIXvMCFyfdX7-3" value="" style="endArrow=none;html=1;rounded=0;" edge="1" parent="uX7CqM1bhRp927PcS0iX-8">
          <mxGeometry width="50" height="50" relative="1" as="geometry">
            <mxPoint y="60" as="sourcePoint" />
            <mxPoint x="200" y="60" as="targetPoint" />
          </mxGeometry>
        </mxCell>
        <mxCell id="uX7CqM1bhRp927PcS0iX-22" style="edgeStyle=orthogonalEdgeStyle;rounded=0;orthogonalLoop=1;jettySize=auto;html=1;entryX=1;entryY=0.5;entryDx=0;entryDy=0;" parent="1" source="uX7CqM1bhRp927PcS0iX-21" target="uX7CqM1bhRp927PcS0iX-1" edge="1">
          <mxGeometry relative="1" as="geometry" />
        </mxCell>
        <mxCell id="uX7CqM1bhRp927PcS0iX-21" value="Admin" style="swimlane;whiteSpace=wrap;html=1;" parent="1" vertex="1">
          <mxGeometry x="560" y="240" width="200" height="190" as="geometry" />
        </mxCell>
        <mxCell id="uX7CqM1bhRp927PcS0iX-28" value="+createProduct()&lt;div&gt;&lt;br&gt;+modifyProduct(product:Product)&lt;br&gt;&lt;br&gt;&lt;/div&gt;&lt;div&gt;+deleteProduct(product:Product)&lt;br&gt;&lt;br&gt;&lt;br&gt;&lt;br&gt;&lt;/div&gt;" style="text;html=1;align=center;verticalAlign=middle;resizable=0;points=[];autosize=1;strokeColor=none;fillColor=none;" parent="uX7CqM1bhRp927PcS0iX-21" vertex="1">
          <mxGeometry x="-5" y="50" width="200" height="130" as="geometry" />
        </mxCell>
        <mxCell id="uX7CqM1bhRp927PcS0iX-24" style="edgeStyle=orthogonalEdgeStyle;rounded=0;orthogonalLoop=1;jettySize=auto;html=1;entryX=1;entryY=0.5;entryDx=0;entryDy=0;" parent="1" source="uX7CqM1bhRp927PcS0iX-23" target="uX7CqM1bhRp927PcS0iX-21" edge="1">
          <mxGeometry relative="1" as="geometry" />
        </mxCell>
        <mxCell id="uX7CqM1bhRp927PcS0iX-23" value="SuperAdmin" style="swimlane;whiteSpace=wrap;html=1;" parent="1" vertex="1">
          <mxGeometry x="850" y="275" width="230" height="120" as="geometry" />
        </mxCell>
        <mxCell id="uX7CqM1bhRp927PcS0iX-25" value="createAdmin()&lt;br&gt;&lt;div style=&quot;&quot;&gt;&lt;span style=&quot;background-color: initial;&quot;&gt;&lt;br&gt;&lt;/span&gt;modifyUser(user: User)&lt;span style=&quot;background-color: initial;&quot;&gt;&lt;br&gt;&lt;br&gt;deleteUser(user: User)&lt;br&gt;&lt;br&gt;&lt;/span&gt;&lt;/div&gt;" style="text;html=1;align=left;verticalAlign=middle;resizable=0;points=[];autosize=1;strokeColor=none;fillColor=none;" parent="uX7CqM1bhRp927PcS0iX-23" vertex="1">
          <mxGeometry x="10" y="30" width="150" height="100" as="geometry" />
        </mxCell>
        <mxCell id="qvGcv-SHBIXvMCFyfdX7-4" value="Order" style="swimlane;whiteSpace=wrap;html=1;" vertex="1" parent="1">
          <mxGeometry x="270" y="485" width="200" height="375" as="geometry" />
        </mxCell>
        <mxCell id="qvGcv-SHBIXvMCFyfdX7-5" value="+id: int&lt;br&gt;&lt;br&gt;+customer_id: Customer&lt;div&gt;&lt;br&gt;&lt;/div&gt;&lt;div&gt;+products: List(Product)&lt;/div&gt;&lt;div&gt;&lt;br&gt;&lt;/div&gt;&lt;div&gt;+date_order: date&lt;/div&gt;&lt;div&gt;&lt;br&gt;&lt;/div&gt;&lt;div&gt;+state: string&lt;br&gt;&lt;br&gt;+total: float&lt;/div&gt;" style="text;html=1;align=left;verticalAlign=middle;resizable=0;points=[];autosize=1;strokeColor=none;fillColor=none;" vertex="1" parent="qvGcv-SHBIXvMCFyfdX7-4">
          <mxGeometry x="3" y="25" width="150" height="170" as="geometry" />
        </mxCell>
        <mxCell id="qvGcv-SHBIXvMCFyfdX7-7" value="+changeState()&lt;br&gt;&lt;br&gt;+payOrder()&lt;div&gt;&lt;br&gt;&lt;/div&gt;&lt;div&gt;+addProduct(Product)&lt;/div&gt;&lt;div&gt;&lt;br&gt;&lt;/div&gt;&lt;div&gt;+deleteProduct(Product)&lt;/div&gt;&lt;div&gt;&lt;br&gt;&lt;/div&gt;&lt;div&gt;&lt;br&gt;&lt;/div&gt;" style="text;html=1;align=left;verticalAlign=middle;resizable=0;points=[];autosize=1;strokeColor=none;fillColor=none;" vertex="1" parent="qvGcv-SHBIXvMCFyfdX7-4">
          <mxGeometry x="3" y="215" width="150" height="140" as="geometry" />
        </mxCell>
        <mxCell id="qvGcv-SHBIXvMCFyfdX7-6" value="" style="endArrow=none;html=1;rounded=0;" edge="1" parent="qvGcv-SHBIXvMCFyfdX7-4">
          <mxGeometry width="50" height="50" relative="1" as="geometry">
            <mxPoint y="205" as="sourcePoint" />
            <mxPoint x="200" y="205" as="targetPoint" />
          </mxGeometry>
        </mxCell>
        <mxCell id="qvGcv-SHBIXvMCFyfdX7-8" value="Product" style="swimlane;whiteSpace=wrap;html=1;" vertex="1" parent="1">
          <mxGeometry x="570" y="480" width="200" height="350" as="geometry" />
        </mxCell>
        <mxCell id="qvGcv-SHBIXvMCFyfdX7-9" value="+id: int&lt;div&gt;&lt;br&gt;&lt;/div&gt;&lt;div&gt;+name: string&lt;/div&gt;&lt;div&gt;&lt;br&gt;&lt;/div&gt;&lt;div&gt;+description: string&lt;br&gt;&lt;br&gt;+brand: string&lt;br&gt;&lt;br&gt;+stock: int&lt;/div&gt;&lt;div&gt;&lt;br&gt;&lt;/div&gt;&lt;div&gt;+price: float&lt;/div&gt;&lt;div&gt;&lt;br&gt;+state: string&lt;br&gt;&lt;br&gt;&lt;/div&gt;&lt;div&gt;+orders: List(Order)&lt;/div&gt;" style="text;html=1;align=left;verticalAlign=middle;resizable=0;points=[];autosize=1;strokeColor=none;fillColor=none;" vertex="1" parent="qvGcv-SHBIXvMCFyfdX7-8">
          <mxGeometry x="5" y="20" width="130" height="230" as="geometry" />
        </mxCell>
        <mxCell id="qvGcv-SHBIXvMCFyfdX7-11" value="+createProduct()&lt;div&gt;&lt;br&gt;&lt;/div&gt;&lt;div&gt;+modifyProduct()&lt;/div&gt;&lt;div&gt;&lt;br&gt;&lt;/div&gt;&lt;div&gt;+deleteProduct()&lt;/div&gt;&lt;div&gt;&lt;br&gt;&lt;/div&gt;" style="text;html=1;align=left;verticalAlign=middle;resizable=0;points=[];autosize=1;strokeColor=none;fillColor=none;" vertex="1" parent="qvGcv-SHBIXvMCFyfdX7-8">
          <mxGeometry x="5" y="260" width="120" height="100" as="geometry" />
        </mxCell>
        <mxCell id="qvGcv-SHBIXvMCFyfdX7-10" value="" style="endArrow=none;html=1;rounded=0;" edge="1" parent="1">
          <mxGeometry width="50" height="50" relative="1" as="geometry">
            <mxPoint x="570" y="730" as="sourcePoint" />
            <mxPoint x="770" y="730" as="targetPoint" />
          </mxGeometry>
        </mxCell>
        <mxCell id="qvGcv-SHBIXvMCFyfdX7-12" style="edgeStyle=orthogonalEdgeStyle;rounded=0;orthogonalLoop=1;jettySize=auto;html=1;strokeColor=default;endArrow=none;endFill=0;startArrow=none;startFill=0;entryX=0.112;entryY=0.084;entryDx=0;entryDy=0;entryPerimeter=0;" edge="1" parent="1" source="qvGcv-SHBIXvMCFyfdX7-5" target="qvGcv-SHBIXvMCFyfdX7-14">
          <mxGeometry relative="1" as="geometry">
            <mxPoint x="140" y="360" as="targetPoint" />
          </mxGeometry>
        </mxCell>
        <mxCell id="qvGcv-SHBIXvMCFyfdX7-13" value="0...*" style="text;html=1;align=center;verticalAlign=middle;resizable=0;points=[];autosize=1;strokeColor=none;fillColor=none;" vertex="1" parent="1">
          <mxGeometry x="230" y="570" width="40" height="30" as="geometry" />
        </mxCell>
        <mxCell id="qvGcv-SHBIXvMCFyfdX7-14" value="1" style="text;html=1;align=center;verticalAlign=middle;resizable=0;points=[];autosize=1;strokeColor=none;fillColor=none;" vertex="1" parent="1">
          <mxGeometry x="140" y="400" width="30" height="30" as="geometry" />
        </mxCell>
        <mxCell id="qvGcv-SHBIXvMCFyfdX7-15" style="edgeStyle=orthogonalEdgeStyle;rounded=0;orthogonalLoop=1;jettySize=auto;html=1;entryX=-0.026;entryY=0.661;entryDx=0;entryDy=0;entryPerimeter=0;endArrow=none;endFill=0;" edge="1" parent="1" source="qvGcv-SHBIXvMCFyfdX7-4" target="qvGcv-SHBIXvMCFyfdX7-9">
          <mxGeometry relative="1" as="geometry" />
        </mxCell>
        <mxCell id="qvGcv-SHBIXvMCFyfdX7-16" value="0...*" style="text;html=1;align=center;verticalAlign=middle;resizable=0;points=[];autosize=1;strokeColor=none;fillColor=none;" vertex="1" parent="1">
          <mxGeometry x="470" y="628" width="40" height="30" as="geometry" />
        </mxCell>
        <mxCell id="qvGcv-SHBIXvMCFyfdX7-17" value="0&lt;span style=&quot;background-color: initial;&quot;&gt;...*&lt;/span&gt;" style="text;html=1;align=center;verticalAlign=middle;resizable=0;points=[];autosize=1;strokeColor=none;fillColor=none;" vertex="1" parent="1">
          <mxGeometry x="530" y="628" width="40" height="30" as="geometry" />
        </mxCell>
      </root>
    </mxGraphModel>
  </diagram>
</mxfile>
